<svg width="20" height="20" viewBox="0 0 20 20" fill="none" xmlns="http://www.w3.org/2000/svg">
<path d="M0.763969 6.92132V13.0787H4.86887L10 18.2098V1.79019L4.86887 6.92132H0.763969ZM7.94755 6.74686V13.2531L5.72064 11.0262H2.81642V8.97377H5.72064L7.94755 6.74686ZM14.618 10C14.618 8.18358 13.5713 6.62372 12.0525 5.86431V14.1254C13.5713 13.3763 14.618 11.8164 14.618 10ZM12.0525 1V3.11402C15.0182 3.99658 17.1836 6.74686 17.1836 10C17.1836 13.2531 15.0182 16.0034 12.0525 16.886V19C16.1676 18.0661 19.236 14.3922 19.236 10C19.236 5.60775 16.1676 1.93387 12.0525 1Z" fill="#04BF7B"/>
</svg>
