<svg width="23" height="23" viewBox="0 0 23 23" fill="none" xmlns="http://www.w3.org/2000/svg">
<path fill-rule="evenodd" clip-rule="evenodd" d="M11.5 0.567383C5.14625 0.567383 0 5.71363 0 12.0674C0 17.1561 3.29187 21.4543 7.86312 22.978C8.43812 23.0786 8.65375 22.7336 8.65375 22.4318C8.65375 22.1586 8.63938 21.253 8.63938 20.2899C5.75 20.8218 5.0025 19.5855 4.7725 18.9386C4.64313 18.608 4.0825 17.5874 3.59375 17.3143C3.19125 17.0986 2.61625 16.5668 3.57938 16.5524C4.485 16.538 5.13188 17.3861 5.3475 17.7311C6.3825 19.4705 8.03563 18.9818 8.69688 18.6799C8.7975 17.9324 9.09938 17.4293 9.43 17.1418C6.87125 16.8543 4.1975 15.8624 4.1975 11.4636C4.1975 10.213 4.64312 9.17801 5.37625 8.37301C5.26125 8.08551 4.85875 6.90676 5.49125 5.32551C5.49125 5.32551 6.45438 5.02363 8.65375 6.50426C9.57375 6.24551 10.5513 6.11613 11.5288 6.11613C12.5063 6.11613 13.4838 6.24551 14.4038 6.50426C16.6031 5.00926 17.5662 5.32551 17.5662 5.32551C18.1987 6.90676 17.7962 8.08551 17.6812 8.37301C18.4144 9.17801 18.86 10.1986 18.86 11.4636C18.86 15.8768 16.1719 16.8543 13.6131 17.1418C14.03 17.5011 14.3894 18.1911 14.3894 19.2693C14.3894 20.8074 14.375 22.0436 14.375 22.4318C14.375 22.7336 14.5906 23.093 15.1656 22.978C19.7081 21.4543 23 17.1418 23 12.0674C23 5.71363 17.8538 0.567383 11.5 0.567383Z" fill="white"/>
</svg>
