<svg width="438" height="506" viewBox="0 0 438 506" fill="none" xmlns="http://www.w3.org/2000/svg">
<path d="M388 377.5C390.638 355.36 390.909 326.56 389 296.5C396.76 291.625 404.081 286.663 410 282.5C416.148 278.176 421.349 274.463 424 271.5C428.213 266.791 431.701 262.632 434 258.5C436.123 254.685 438 249 436.5 245L436 244L435.5 243C434.275 241.366 432.831 240.567 431.5 240C430.139 239.42 429.864 239.215 428.5 239C425.777 238.571 421.602 238.333 418.5 238.5C412.25 238.836 405.016 240.187 399.5 241.5C396.485 242.218 390.725 244.107 384.5 246.5C377.588 186.992 365.557 127.325 355 96.5C334.352 36.2084 292.5 11 273 4.99999C272.856 4.95562 272.054 4.6651 271.906 4.63581C254.713 1.23114 211.814 -3.28911 177 4.99995C159.126 9.25569 142.533 18.5066 129 28.5C115.442 38.5119 104.808 49.048 99 56C98.9826 56.021 98.5172 56.4788 98.5 56.5C93.6139 62.5137 84.2311 78.5258 82.5 98C82.2463 100.853 82.2811 103.864 82.5 107C83.811 125.786 92.4723 151.312 97.5 164L92 263.5C90.6628 262.901 89.9309 262.642 88.5 262L87.5 261.5C79.3657 257.849 69.9668 253.85 61 250C54.4896 247.204 48.4286 244.553 43 242.5C37.7042 240.497 32.9097 239.109 29.5 238.5C23.8201 237.486 19.139 236.779 14.5 237C12.1993 237.11 8.72095 237.026 6.5 238.01C4.1499 239.053 1.97937 240.735 1 244C-0.540894 249.136 1.44545 254.065 4.00002 258C6.65004 262.082 10.5084 266.259 15.5 271.5C18.215 274.351 22.5931 278.012 28 282C33.5103 286.064 40.5294 290.877 47.5 295.5C61.1107 304.526 76.3784 313.978 87 320C84.7444 341.173 82.5 364.802 82.5 378.5C82.5 402.616 93.0128 415.256 100.5 419C100.906 419.203 101.559 419.393 102 419.5C121.635 424.239 142.911 427.793 164.5 430.5C160.608 436.629 155.986 444.317 152 451C148.949 456.117 146.163 460.906 144 465C142.92 467.043 142.228 468.859 141.5 470.5C140.827 472.017 139.788 474.464 139.5 476C138.858 479.425 138.398 483.349 138.5 487.5C138.551 489.572 138.788 491.63 139.369 493.701C139.932 495.71 141.368 498.172 143.5 500C146 502.143 148.17 502.204 150.5 502C152.788 501.799 154.612 501.365 156.5 500.5C160.306 498.756 164.086 496.129 167 493.701C168.209 492.694 172.023 489.088 176 485C180.137 480.748 185.261 475.016 191 469C201.952 457.519 214.63 444.444 223 435.5C225.93 435.622 229.078 435.913 232 436C238.643 446.462 247.951 460.191 256.5 472.5C261.124 479.158 265.509 485.332 269 490C270.741 492.329 272.217 494.449 273.5 496C274.14 496.773 274.944 497.908 275.5 498.5C275.98 499.011 276.704 499.443 277.5 500C280.447 502.063 283.416 503.657 286.5 504.5C289.5 505.5 293.5 505.5 295.5 504.5L296.743 504C298.578 502.952 301.577 500.938 303.5 497C305.291 493.332 305.556 489.119 305 483C304.229 474.52 299.186 455.767 289.5 435C316.175 433.55 341.503 430.64 363 426C371.471 424.172 376.754 417.319 380.5 409C384.298 400.566 386.484 390.226 388 377.5Z" fill="white"/>
<path d="M215.201 110.619C216.341 109.283 218.01 108.513 219.766 108.513H303.266C306.08 108.513 308.515 110.468 309.124 113.215L321.624 161.619C322.018 163.395 321.584 165.254 320.445 166.673C319.306 168.091 317.585 168.917 315.766 168.917H228.766C225.817 168.917 223.306 166.774 222.841 163.862L213.841 115.458C213.564 113.724 214.061 111.955 215.201 110.619Z" fill="black"/>
<path d="M203.868 310.947C205.521 311.114 207.032 311.959 208.039 313.281L214.238 321.417H247.467L262.169 319.947C265.341 319.629 268.207 321.848 268.695 324.997C269.184 328.147 267.124 331.129 264.005 331.787L250.505 334.637C250.098 334.724 249.683 334.767 249.266 334.767C246.374 334.767 242.986 334.789 239.388 334.812H239.387C233.241 334.853 226.482 334.897 220.526 334.842C215.782 334.798 211.368 334.69 208.001 334.457C206.339 334.342 204.767 334.186 203.479 333.955C203.248 333.913 203 333.865 202.743 333.808C201.486 334.145 200.221 334.342 199.159 334.473C196.934 334.748 194.413 334.862 191.966 334.842C189.518 334.821 187.003 334.666 184.787 334.359C183.879 334.233 182.833 334.059 181.776 333.796L181.728 333.81C180.464 334.178 178.993 334.387 177.601 334.526C174.733 334.813 170.915 334.923 166.734 334.954C162.21 334.988 156.804 334.928 151.334 334.867C146.874 334.817 142.37 334.767 138.266 334.767C137.569 334.767 136.877 334.645 136.221 334.408L124.221 330.058C121.247 328.98 119.621 325.778 120.505 322.74C121.389 319.703 124.48 317.874 127.568 318.56L140.425 321.417H169.904L176.603 313.142C177.689 311.8 179.3 310.991 181.025 310.922C182.749 310.852 184.42 311.529 185.611 312.779L191.644 319.114L199.315 312.401C200.566 311.307 202.214 310.78 203.868 310.947Z" fill="black"/>
<path d="M169.766 361.5C167.276 363.492 173.766 373 176.766 374.5C180.276 376.255 188.266 379 190.766 379C193.266 379 200.938 377.08 204.266 375C208.266 372.5 215.266 364 211.766 361.5C210.242 360.411 205.016 361.029 199.573 361.673C196.088 362.085 192.514 362.508 189.766 362.5C187.014 362.492 183.738 362.031 180.621 361.593C175.764 360.911 171.289 360.282 169.766 361.5Z" fill="black"/>
<path fill-rule="evenodd" clip-rule="evenodd" d="M388.665 376.914C391.303 354.775 391.187 326.598 389.278 296.538C397.038 291.663 404.291 286.902 410.21 282.739C416.358 278.414 421.586 274.381 424.238 271.418C428.451 266.709 432.067 262.181 434.366 258.049C436.489 254.234 438.481 249.001 436.249 243.98L435.973 243.36L435.566 242.817C434.341 241.183 432.729 240.235 431.398 239.667C430.037 239.088 428.587 238.744 427.223 238.529C424.5 238.1 421.358 238.071 418.256 238.238C412.007 238.574 404.892 239.767 399.376 241.08C396.361 241.798 390.909 243.737 384.684 246.129C377.772 186.621 365.999 127.298 355.442 96.4729C334.795 36.1812 292.258 10.1598 272.372 4.63577C272.227 4.59537 272.08 4.56048 271.932 4.53116C254.738 1.12649 211.69 -3.70895 176.876 4.58004C159.002 8.83585 142.26 18.4093 128.727 28.4028C115.169 38.4145 104.47 49.118 98.6615 56.07C98.644 56.091 98.6266 56.1121 98.6094 56.1333C93.7233 62.147 84.0207 78.4114 82.2896 97.8856C82.036 100.739 82.0618 103.795 82.2806 106.931C83.5917 125.717 92.1765 151.231 97.2042 163.919L91.9068 263.347C90.5696 262.748 89.1805 262.125 87.7495 261.482L87.736 261.476C79.6004 257.825 70.115 253.567 61.146 249.716C54.6356 246.921 48.3155 244.303 42.887 242.25C37.5912 240.247 32.7305 238.619 29.3208 238.01C23.6409 236.996 17.9256 236.265 13.2865 236.486C10.9859 236.596 8.4867 236.955 6.26576 237.94C3.91562 238.982 1.49852 240.928 0.51915 244.193C-1.02169 249.329 1.11633 254.186 3.6709 258.121C6.32091 262.204 10.4297 266.814 15.4213 272.055C18.1362 274.906 22.7709 278.622 28.1778 282.609C33.688 286.673 40.3303 291.257 47.3009 295.879C60.9116 304.906 75.9567 314.202 86.5782 320.224C84.3226 341.397 82.2661 364.719 82.2661 378.417C82.2661 402.532 93.0956 415.54 100.583 419.283C100.989 419.487 101.417 419.643 101.858 419.749C121.493 424.489 142.516 428.203 164.105 430.909C160.214 437.038 155.799 444.135 151.813 450.819C148.761 455.935 145.927 460.867 143.764 464.961C142.684 467.005 141.74 468.901 141.011 470.542C140.338 472.058 139.657 473.775 139.369 475.311C138.727 478.736 138.154 483.188 138.255 487.339C138.306 489.41 138.529 491.63 139.109 493.701C139.672 495.709 140.729 498.145 142.861 499.972C145.361 502.115 148.334 502.481 150.664 502.277C152.951 502.076 155.164 501.299 157.053 500.434C160.859 498.69 164.694 495.954 167.607 493.526C168.816 492.519 172.015 489.29 175.992 485.202C180.128 480.95 185.469 475.387 191.208 469.371C202.16 457.889 214.6 444.718 222.971 435.774C225.901 435.896 228.828 436.001 231.75 436.088C238.393 446.55 247.922 460.817 256.471 473.126C261.095 479.784 265.464 485.914 268.954 490.583C270.695 492.911 272.254 494.925 273.538 496.476C274.177 497.25 274.787 497.956 275.344 498.548C275.824 499.059 276.529 499.775 277.325 500.332C280.273 502.395 283.481 503.992 286.565 504.835C289.366 505.601 293.324 506.08 296.743 504.126L296.772 504.11C298.607 503.061 301.689 501.3 303.612 497.362C305.403 493.694 305.798 488.992 305.241 482.874C304.471 474.394 299.579 456.203 289.893 435.436C316.568 433.986 341.535 430.921 363.032 426.282C371.503 424.453 377.136 417.523 380.882 409.204C384.68 400.77 387.149 389.64 388.665 376.914ZM269.372 16.2576C252.751 12.9996 211.894 8.57805 179.656 16.2537C163.93 19.9979 148.672 28.5912 135.855 38.056C123.085 47.486 113.098 57.5138 107.898 63.731C104.105 68.4148 95.7083 82.4584 94.2425 98.9481C94.2157 99.2503 94.1928 101.736 94.174 103.784C94.1616 105.136 94.1509 108.298 94.142 108.513H172.766C174.523 108.513 176.191 109.283 177.331 110.619C178.471 111.955 178.968 113.724 178.691 115.458L169.691 163.862C169.682 163.918 169.672 163.974 169.662 164.03L157.505 228.417H228.766C230.725 228.417 232.561 229.374 233.684 230.979C234.806 232.585 235.074 234.638 234.401 236.478L219.401 277.478C218.535 279.844 216.285 281.417 213.766 281.417H167.766C165.363 281.417 163.191 279.983 162.248 277.772L144.748 236.772C144.281 235.679 144.15 234.472 144.37 233.304L156.527 168.917H108.955L102.758 285.236C102.75 285.388 102.736 285.539 102.716 285.689C99.8712 307.612 94.2661 356.477 94.2661 378.417C94.2661 397.955 102.448 406.347 105.473 408.276C186.739 427.736 292.187 429.296 360.5 414.552C363.466 413.912 366.818 411.21 369.94 404.277C373.01 397.458 375.293 387.716 376.749 375.495C379.087 355.878 379.185 330.899 377.681 303.681C363.714 312.125 349.257 320.311 338.476 325.77L333.056 315.064C344.859 309.087 361.442 299.61 376.817 290.154L379.504 288.5L382.004 287L386.004 284.5L387.504 283.5L388.304 282.942C393.865 279.375 398.981 275.966 403.306 272.923C409.591 268.503 413.696 265.203 415.295 263.416C419.367 258.865 422.251 255.142 423.88 252.214C424.314 251.435 424.607 250.806 424.805 250.307C423.306 250.128 421.303 250.092 418.901 250.221C413.526 250.51 407.14 251.567 402.156 252.754C400.034 253.259 395.277 254.911 388.857 257.381C387.945 257.732 387.007 258.097 386.047 258.473L382.004 260L378.504 261.5L374.464 263.145C372.218 264.073 369.942 265.026 367.677 265.987C360.273 269.127 353.018 272.333 347.235 275.052C344.34 276.413 341.854 277.632 339.921 278.648C337.866 279.727 336.779 280.4 336.424 280.673L329.108 271.161C330.378 270.184 332.313 269.089 334.341 268.024C336.491 266.895 339.151 265.592 342.13 264.192C348.094 261.388 355.498 258.117 362.992 254.939C366.385 253.5 369.807 252.076 373.132 250.719C366.337 190.668 354.461 130.645 344.09 100.361C324.822 44.0991 285.618 20.8769 269.372 16.2576ZM82.7194 272.378C85.7532 273.74 88.6165 275.025 91.2228 276.186L90.7867 284.371C90.0172 290.31 89.0368 298.284 88.017 307.204C78.1444 301.433 65.5303 293.57 53.9331 285.879C47.0624 281.322 40.5966 276.858 35.3002 272.952C29.9007 268.97 26.0305 265.795 24.1109 263.779C19.1025 258.52 15.7113 254.63 13.7363 251.588C12.8852 250.276 12.4265 249.314 12.1972 248.637C12.6177 248.567 13.1642 248.506 13.8582 248.473C17.0816 248.319 21.6913 248.838 27.2113 249.823C29.4017 250.215 33.3202 251.462 38.6421 253.474C43.8313 255.437 49.9674 257.976 56.4112 260.743C65.2876 264.554 74.5928 268.731 82.687 272.364L82.6932 272.366L82.7163 272.377L82.7194 272.378ZM162.119 456.965C167.154 448.524 172.907 439.374 177.369 432.439C187.284 433.484 197.281 434.321 207.283 434.953C199.759 442.948 190.724 452.492 182.525 461.088C176.797 467.093 171.487 472.623 167.39 476.835C165.34 478.942 163.607 480.705 162.283 482.027C161.62 482.689 161.074 483.226 160.65 483.633C160.438 483.837 160.267 483.998 160.134 484.12L160.069 484.18L160.027 484.218C160.009 484.234 159.993 484.248 159.978 484.261L159.952 484.284C159.931 484.302 159.923 484.309 159.925 484.308C157.439 486.38 154.523 488.393 152.054 489.525C151.462 489.796 150.969 489.982 150.574 490.106C150.404 489.354 150.283 488.331 150.252 487.045C150.178 484.046 150.605 480.498 151.163 477.523C151.162 477.53 151.162 477.53 151.164 477.522C151.173 477.487 151.217 477.317 151.34 476.975C151.483 476.576 151.692 476.057 151.979 475.41C152.554 474.115 153.361 472.484 154.374 470.566C156.397 466.737 159.112 462.007 162.119 456.965ZM266.327 466.281C259.572 456.554 252.215 445.617 246.203 436.374C256.557 436.476 266.806 436.355 276.861 436.011C287.656 457.902 292.639 476.792 293.291 483.96C293.78 489.342 293.174 491.389 292.829 492.097C292.641 492.481 292.484 492.716 291.144 493.502C290.879 493.498 290.409 493.446 289.729 493.26C288.263 492.859 286.357 491.983 284.359 490.607C284.311 490.561 284.223 490.473 284.09 490.331C283.771 489.992 283.338 489.497 282.784 488.828C281.681 487.494 280.255 485.657 278.565 483.397C275.193 478.887 270.914 472.885 266.327 466.281ZM426.738 250.728C426.738 250.728 426.731 250.724 426.717 250.717C426.732 250.724 426.738 250.728 426.738 250.728Z" fill="black"/>
</svg>
