<svg width="130" height="150" viewBox="0 0 130 150" fill="none" xmlns="http://www.w3.org/2000/svg">
<path d="M63.8577 32.8245C64.1959 32.4279 64.691 32.1996 65.2122 32.1996H89.9895C90.8244 32.1996 91.5471 32.7797 91.7277 33.5947L95.4369 47.9578C95.5537 48.4849 95.4251 49.0365 95.0872 49.4575C94.7492 49.8785 94.2385 50.1235 93.6987 50.1235H67.8828C67.0078 50.1235 66.2625 49.4877 66.1246 48.6236L63.454 34.2605C63.3719 33.7458 63.5194 33.221 63.8577 32.8245Z" fill="white" fill-opacity="0.7"/>
<path d="M60.4946 92.2687C60.9852 92.3182 61.4334 92.5689 61.7323 92.9612L63.5717 95.3755H73.432L77.7946 94.9392C78.7357 94.8451 79.5862 95.5033 79.7311 96.4379C79.8761 97.3726 79.2649 98.2574 78.3395 98.4528L74.3336 99.2985C74.2127 99.324 74.0894 99.3369 73.9658 99.3369C73.1075 99.3369 72.1022 99.3435 71.0347 99.3504H71.0342C69.2108 99.3624 67.2051 99.3755 65.4376 99.3591C64.0301 99.346 62.7203 99.3142 61.721 99.245C61.2278 99.2108 60.7614 99.1645 60.3794 99.0959C60.3107 99.0836 60.2372 99.0693 60.1609 99.0523C59.7879 99.1525 59.4124 99.2107 59.0974 99.2497C58.437 99.3314 57.689 99.3651 56.963 99.3591C56.2366 99.353 55.4903 99.3068 54.8325 99.2157C54.5632 99.1784 54.2529 99.1269 53.9392 99.0489L53.9251 99.053C53.5498 99.1622 53.1133 99.2241 52.7003 99.2654C51.8492 99.3507 50.7163 99.3832 49.4758 99.3925C48.1332 99.4026 46.5292 99.3847 44.906 99.3666C43.5825 99.3518 42.2462 99.3369 41.0283 99.3369C40.8214 99.3369 40.6161 99.3008 40.4216 99.2303L36.8607 97.9395C35.9782 97.6196 35.4957 96.6695 35.758 95.7682C36.0203 94.8669 36.9374 94.3241 37.8537 94.5277L41.6688 95.3755H50.4163L52.4041 92.92C52.7264 92.5218 53.2045 92.2818 53.7163 92.2612C54.2281 92.2406 54.7239 92.4414 55.0772 92.8123L56.8674 94.692L59.1437 92.7003C59.5148 92.3756 60.0039 92.2193 60.4946 92.2687Z" fill="white" fill-opacity="0.7"/>
<path d="M50.3755 107.269C49.6364 107.861 51.5624 110.682 52.4526 111.127C53.4942 111.648 55.865 112.462 56.6069 112.462C57.3487 112.462 59.6252 111.893 60.6128 111.275C61.7997 110.533 63.8769 108.011 62.8383 107.269C62.386 106.946 60.8352 107.13 59.2201 107.321C58.1862 107.443 57.1255 107.569 56.3102 107.566C55.4934 107.564 54.5215 107.427 53.5964 107.297C52.1552 107.095 50.8273 106.908 50.3755 107.269Z" fill="white" fill-opacity="0.7"/>
<path fill-rule="evenodd" clip-rule="evenodd" d="M115.33 111.844C116.113 105.274 116.079 96.9129 115.512 87.993C117.815 86.5464 119.967 85.1337 121.724 83.8983C123.548 82.6151 125.099 81.4183 125.886 80.539C127.136 79.1417 128.209 77.7982 128.891 76.5722C129.521 75.4401 130.112 73.8873 129.45 72.3973L129.368 72.2133L129.247 72.0522C128.884 71.5674 128.406 71.2859 128.011 71.1176C127.607 70.9456 127.177 70.8436 126.772 70.7798C125.964 70.6526 125.032 70.644 124.111 70.6935C122.257 70.7932 120.145 71.1471 118.509 71.5368C117.614 71.7498 115.996 72.3251 114.149 73.035C112.098 55.377 108.605 37.7738 105.472 28.6268C99.3451 10.7362 86.7231 3.01476 80.8222 1.37559C80.779 1.3636 80.7354 1.35325 80.6915 1.34455C75.5896 0.334269 62.8158 -1.10057 52.4853 1.35905C47.1814 2.6219 42.2134 5.46266 38.1977 8.42808C34.1747 11.3989 30.9997 14.575 29.2763 16.6379C29.2711 16.6441 29.2659 16.6504 29.2608 16.6567C27.8109 18.4412 24.9318 23.2674 24.4182 29.046C24.3429 29.8927 24.3506 30.7995 24.4155 31.73C24.8045 37.3046 27.3519 44.8755 28.8438 48.6404L27.2719 78.1442C26.8751 77.9664 26.4629 77.7814 26.0383 77.5909L26.0343 77.589C23.6202 76.5055 20.8055 75.2422 18.1441 74.0994C16.2123 73.2699 14.3369 72.4932 12.7261 71.884C11.1546 71.2897 9.71225 70.8066 8.7005 70.6259C7.01506 70.3249 5.31914 70.108 3.94257 70.1736C3.2599 70.2062 2.5183 70.3127 1.85927 70.605C1.1619 70.9142 0.444662 71.4917 0.15405 72.4604C-0.30317 73.9845 0.331255 75.4257 1.08928 76.5935C1.87563 77.8049 3.09485 79.1728 4.57602 80.7281C5.38164 81.574 6.7569 82.6767 8.36132 83.86C9.99638 85.0658 11.9674 86.4259 14.0358 87.7977C18.0746 90.4761 22.539 93.2347 25.6907 95.0217C25.0214 101.304 24.4112 108.225 24.4112 112.289C24.4112 119.445 27.6247 123.305 29.8464 124.416C29.9669 124.476 30.0939 124.523 30.2249 124.554C36.0512 125.96 42.2895 127.062 48.6957 127.866C47.541 129.684 46.2308 131.79 45.0481 133.773C44.1426 135.292 43.3015 136.755 42.6597 137.97C42.3394 138.576 42.0591 139.139 41.843 139.626C41.6432 140.076 41.441 140.585 41.3555 141.041C41.165 142.057 40.995 143.379 41.0251 144.61C41.0402 145.225 41.1062 145.884 41.2784 146.498C41.4454 147.094 41.7591 147.817 42.3919 148.359C43.1336 148.995 44.0157 149.104 44.7072 149.043C45.3859 148.983 46.0426 148.753 46.603 148.496C47.7324 147.979 48.8703 147.167 49.7348 146.446C50.0935 146.147 51.0428 145.189 52.2228 143.976C53.4503 142.714 55.035 141.064 56.7379 139.279C59.9878 135.872 63.6794 131.963 66.1631 129.309C67.0326 129.346 67.9012 129.377 68.7682 129.402C70.7394 132.507 73.5671 136.74 76.1038 140.393C77.476 142.369 78.7722 144.187 79.808 145.573C80.3247 146.264 80.7873 146.861 81.1681 147.322C81.3578 147.551 81.5389 147.761 81.704 147.936C81.8464 148.088 82.0557 148.3 82.292 148.466C83.1665 149.078 84.1184 149.552 85.0337 149.802C85.8649 150.029 87.0394 150.171 88.0538 149.592L88.0624 149.587C88.6069 149.276 89.5216 148.753 90.0922 147.585C90.6236 146.496 90.7407 145.101 90.5757 143.285C90.3469 140.769 88.8954 135.371 86.0212 129.209C93.9366 128.779 101.345 127.869 107.724 126.493C110.238 125.95 111.909 123.893 113.021 121.425C114.148 118.922 114.88 115.62 115.33 111.844ZM79.9321 4.82421C74.9999 3.85743 62.8761 2.5454 53.3101 4.82304C48.6438 5.93407 44.1162 8.48398 40.313 11.2925C36.5237 14.0907 33.56 17.0663 32.0171 18.9112C30.8917 20.301 28.3999 24.4683 27.965 29.3613C27.957 29.451 27.9503 30.1887 27.9447 30.7964C27.941 31.1976 27.9378 32.1357 27.9352 32.1996H51.2657C51.7869 32.1996 52.2819 32.4279 52.6202 32.8245C52.9584 33.221 53.1059 33.7458 53.0238 34.2605L50.3532 48.6236C50.3506 48.6402 50.3477 48.6568 50.3445 48.6734L46.7372 67.7792H67.8828C68.4642 67.7792 69.009 68.0631 69.3421 68.5396C69.6751 69.0161 69.7546 69.6253 69.5548 70.1713L65.1038 82.3374C64.847 83.0393 64.1792 83.5061 63.4318 83.5061H49.782C49.0688 83.5061 48.4245 83.0805 48.1445 82.4246L42.9516 70.2585C42.8132 69.9341 42.7742 69.5759 42.8396 69.2293L46.447 50.1235H32.3307L30.4917 84.6394C30.4893 84.6843 30.4852 84.7292 30.4794 84.7738C29.6352 91.2792 27.972 105.779 27.972 112.289C27.972 118.087 30.3999 120.577 31.2974 121.15C55.4118 126.924 86.7019 127.387 106.973 123.012C107.853 122.822 108.848 122.02 109.774 119.963C110.685 117.94 111.362 115.049 111.795 111.422C112.488 105.601 112.517 98.1891 112.071 90.1127C107.926 92.6183 103.637 95.0474 100.438 96.6672L98.8291 93.4904C102.332 91.7169 107.252 88.9047 111.814 86.0986L112.612 85.6079L113.354 85.1628L114.541 84.421L114.986 84.1242L115.223 83.9588C116.873 82.9001 118.391 81.8887 119.675 80.9858C121.54 79.6741 122.758 78.6949 123.232 78.1647C124.441 76.8141 125.296 75.7095 125.78 74.8407C125.909 74.6094 125.996 74.4227 126.054 74.2747C125.61 74.2216 125.015 74.2108 124.302 74.2491C122.707 74.3349 120.812 74.6486 119.333 75.0008C118.704 75.1507 117.292 75.641 115.387 76.3739C115.117 76.4781 114.838 76.5862 114.553 76.6978L113.354 77.151L112.315 77.5961L111.116 78.0841C110.45 78.3597 109.775 78.6424 109.102 78.9275C106.905 79.8593 104.753 80.8107 103.037 81.6173C102.178 82.0212 101.44 82.3831 100.866 82.6845C100.256 83.0048 99.934 83.2043 99.8287 83.2853L97.6576 80.4629C98.0345 80.173 98.6087 79.8481 99.2105 79.532C99.8485 79.197 100.638 78.8104 101.522 78.3949C103.291 77.5629 105.488 76.5923 107.712 75.6493C108.719 75.2223 109.734 74.7996 110.721 74.3969C108.705 56.5779 105.181 38.767 102.103 29.7805C96.3859 13.0857 84.7527 6.1949 79.9321 4.82421ZM24.5457 80.824C25.4459 81.2281 26.2956 81.6094 27.0689 81.9538L26.9395 84.3826C26.7112 86.1451 26.4203 88.5111 26.1177 91.158C23.1881 89.4455 19.4451 87.1123 16.0038 84.8301C13.965 83.478 12.0464 82.1533 10.4748 80.9942C8.87256 79.8126 7.72416 78.8704 7.15454 78.2723C5.66836 76.7118 4.66207 75.5576 4.07602 74.6547C3.82349 74.2657 3.68737 73.9802 3.61933 73.7791C3.7441 73.7585 3.90627 73.7402 4.1122 73.7304C5.0687 73.6848 6.43656 73.8388 8.07454 74.1312C8.72451 74.2473 9.88725 74.6173 11.4664 75.2146C13.0062 75.7969 14.8271 76.5503 16.7392 77.3713C19.3731 78.5023 22.1343 79.7417 24.5361 80.8197L24.5379 80.8205L24.5448 80.8236L24.5457 80.824ZM48.1064 135.597C49.6002 133.093 51.3076 130.377 52.6315 128.319C55.5736 128.63 58.5401 128.878 61.5081 129.065C59.2755 131.438 56.5944 134.27 54.1613 136.821C52.4617 138.603 50.8861 140.244 49.6705 141.493C49.0622 142.119 48.5479 142.642 48.155 143.034C47.9583 143.23 47.7963 143.39 47.6703 143.511C47.6074 143.571 47.5567 143.619 47.5173 143.655L47.4979 143.673L47.4854 143.684C47.4801 143.689 47.4753 143.693 47.4711 143.697L47.4632 143.704C47.4571 143.709 47.4546 143.711 47.4553 143.711C46.7175 144.326 45.8524 144.923 45.1198 145.259C44.944 145.339 44.7978 145.395 44.6805 145.431C44.6301 145.208 44.5942 144.905 44.5849 144.523C44.5631 143.633 44.6898 142.58 44.8554 141.697C44.8549 141.7 44.8549 141.7 44.8556 141.697C44.8582 141.687 44.8712 141.636 44.9077 141.535C44.9502 141.416 45.0124 141.262 45.0975 141.071C45.2681 140.686 45.5076 140.202 45.8082 139.633C46.4084 138.497 47.2141 137.093 48.1064 135.597ZM79.0285 138.362C77.0238 135.475 74.8409 132.23 73.0568 129.487C76.1294 129.518 79.1707 129.482 82.1541 129.38C85.3576 135.875 86.8361 141.481 87.0295 143.608C87.1746 145.205 86.995 145.812 86.8925 146.022C86.8367 146.136 86.79 146.206 86.3925 146.439C86.3137 146.438 86.1743 146.422 85.9725 146.367C85.5376 146.248 84.9719 145.988 84.3792 145.58C84.365 145.566 84.3387 145.54 84.2992 145.498C84.2047 145.398 84.0761 145.251 83.9118 145.052C83.5845 144.656 83.1613 144.111 82.6598 143.441C81.6593 142.102 80.3896 140.321 79.0285 138.362ZM126.628 74.3996C126.628 74.3996 126.626 74.3986 126.622 74.3964C126.626 74.3984 126.628 74.3996 126.628 74.3996Z" fill="white" fill-opacity="0.7"/>
</svg>
